<?xml version="1.0" encoding="utf-8"?>
<!-- Generator: Adobe Illustrator 18.1.1, SVG Export Plug-In . SVG Version: 6.00 Build 0)  -->
<svg version="1.1" id="Layer_1" xmlns="http://www.w3.org/2000/svg" xmlns:xlink="http://www.w3.org/1999/xlink" x="0px" y="0px"
	 viewBox="244 -156 512 512" enable-background="new 244 -156 512 512" xml:space="preserve">
<g>
	<circle fill="#008AE7" cx="500" cy="229.9" r="20"/>
	<path fill="#008AE7" d="M555.8-39.5H444.2c-6.3,0-11.3,4.9-11.3,10.8v210.9c0,6,5.1,10.8,11.3,10.8h111.6c6.3,0,11.3-4.9,11.3-10.8
		V-28.7C567.1-34.7,562-39.5,555.8-39.5z"/>
	<path fill="#008AE7" d="M500-156c-141.4,0-256,114.6-256,256s114.6,256,256,256s256-114.6,256-256S641.4-156,500-156z M599.6,226.3
		c0,19.6-15.9,35.4-35.4,35.4H435.8c-19.6,0-35.4-15.9-35.4-35.4V-27.4c0-19.6,15.9-35.4,35.4-35.4h128.4
		c19.6,0,35.4,15.9,35.4,35.4V226.3z"/>
</g>
</svg>
